<?xml version="1.0" encoding="UTF-8"?><svg id="a" xmlns="http://www.w3.org/2000/svg" viewBox="0 0 97 58"><defs><style>.b{fill:#000;fill-rule:evenodd;}</style></defs><path class="b" d="M5.2,38.89l18.9-2.28h0l10.37-15.13-15.51-2.65L5.2,38.89ZM24.06,11.37l2.64-3.85C29.92,2.82,35.3,0,41.07,0h52.72l-2.64,3.85c-3.22,4.7-8.61,7.52-14.37,7.52H24.06Zm21.92,16.93l9.89-14.43h10.09l-8.98,13.1-11,1.33Zm14.35-1.73l8.71-12.7h10.09l-5.59,8.15c-1.4,2.05-3.64,3.4-6.13,3.7l-7.08,.86ZM8.19,14.44l.39-.57H52.8l-10.17,14.84-10.97,1.32,7.1-10.36L8.19,14.44ZM63.18,46.47h11.66l-7.65,8.92h7.42v2.45h-13.11l7.65-8.92h-7.65l1.68-2.45Zm-51.55,2.45H2.97v2.89H11.17v2.47H2.97v3.56H0v-11.37H13.31l-1.68,2.45Zm77.4-.29l-2.36,4.61h4.7l-2.34-4.61Zm7.97,9.21h-3.29l-1.24-2.42h-6.92l-1.24,2.42h-3.27l5.96-11.37h4.01l5.98,11.37Zm-74.49-3.11c.67,.55,1.76,.82,3.29,.82h0c1.52,0,2.61-.28,3.28-.82,.67-.55,1.01-1.42,1.01-2.59s-.33-2.02-1-2.57c-.67-.54-1.76-.81-3.29-.81s-2.63,.27-3.29,.8c-.67,.54-1,1.39-1,2.58s.33,2.04,1,2.59Zm8.79,1.78c-1.18,.99-3.01,1.49-5.5,1.49h0c-2.5,0-4.33-.49-5.51-1.48-1.17-.99-1.76-2.46-1.76-4.39s.59-3.38,1.76-4.36c1.17-.98,3.02-1.47,5.51-1.47s4.32,.49,5.5,1.48c1.18,.99,1.76,2.43,1.76,4.35s-.59,3.39-1.76,4.38Zm23.46,1.33h0Zm-4.05,0h4.05l-4.57-3.48c2.11-.25,3.74-1.76,3.74-3.93,0-2.38-1.95-3.96-4.36-3.96h-9.14v11.37h2.97v-8.92h5.35c1.01,0,2.2,.14,2.2,1.63v.17c0,1.49-1.19,1.63-2.2,1.63h-4.89l6.85,5.49Z"/></svg>