<?xml version="1.0" encoding="utf-8"?>
<!-- Generator: Adobe Illustrator 24.2.1, SVG Export Plug-In . SVG Version: 6.00 Build 0)  -->
<svg version="1.1" id="Layer_1" xmlns="http://www.w3.org/2000/svg" xmlns:xlink="http://www.w3.org/1999/xlink" x="0px" y="0px"
	 viewBox="0 0 728 674" style="enable-background:new 0 0 728 674;" xml:space="preserve">
<style type="text/css">
	.st0{fill:#000000;}
</style>
<g transform="translate(0.000000,674.000000) scale(0.100000,-0.100000)">
	<path class="st0" d="M2337,6644c-186-34-370-129-507-264c-127-124-196-234-259-415c-18-49-350-972-738-2050
		C444,2837,118,1919,108,1875c-25-107-35-346-19-456c63-429,357-710,854-818c97-21,100-21,2317-21c1221,0,2220-3,2220-6
		c0-6-133-372-169-468c-10-24-9-27,4-22c10,4,1204,860,1243,891c4,4-600,885-607,885c-3,0-47-108-96-240l-90-240H3445H1125l-50,24
		c-58,27-128,99-156,159c-12,27-19,65-19,108c0,62,39,174,709,2030c390,1080,714,1976,720,1991c18,48,79,104,143,134l63,29l557,3
		l556,3l10,27c5,15,55,150,111,300s101,275,101,277s-56,6-124,7l-124,3l34,88c19,49,34,91,34,93s-287,4-637,3
		C2551,6658,2398,6655,2337,6644z"/>
	<path class="st0" d="M3776,6628c-8-18-17-43-20-55l-7-23h136c127,0,137-1,130-17c-21-56-245-666-245-669c0-2,64-4,143-4h144
		l123,338c67,185,126,341,130,345s59,6,122,5l116-3l-89-240c-98-261-113-329-85-383c31-59,46-62,344-62h269l62,31
		c76,38,128,100,165,196c14,37,68,181,120,318l94,250l-141,3c-100,2-143-1-148-9c-4-7-56-143-115-302c-115-312-136-348-202-367
		c-47-13-103-13-136,0c-53,20-56,10,163,598l30,82h-545h-545L3776,6628z"/>
	<path class="st0" d="M6306,6338c-66-178-132-358-147-400l-29-78h144h144l65,178c36,97,94,252,127,345l62,167h103
		c113,0,129-7,127-58c-1-15-50-162-111-327l-109-300l140-3c78-1,143-1,145,1c2,3,55,142,118,311c120,319,128,355,101,421
		c-27,64-36,65-418,65h-344L6306,6338z"/>
	<path class="st0" d="M5505,6633c-22-57-285-775-285-779c0-2,62-4,139-4h138l68,180l68,180h91c154,0,162-19,91-210
		c-25-67-45-125-45-131s54-8,141-7l142,3l50,130c54,141,64,212,36,240c-15,15-12,20,33,63c115,108,150,252,78,324l-28,28h-355
		C5538,6650,5512,6649,5505,6633z M5974,6534c41-41-10-161-86-200c-18-9-60-14-121-14h-95l33,88c18,48,38,99,44,115
		c10,27,11,27,110,27C5936,6550,5962,6546,5974,6534z"/>
	<path class="st0" d="M2896,5495c-35-68-131-159-213-203c-72-38-196-72-263-72h-47l-96-262l-95-263l213-5l213-5l-533-1470
		c-293-808-535-1480-539-1492l-7-23h403h404l674,1863c370,1024,684,1890,697,1925l23,62h-403h-402L2896,5495z"/>
	<path class="st0" d="M4440,5534c-175-46-323-163-399-315c-55-111-985-2692-1005-2791s-21-266-1-343c47-178,184-299,405-358
		c85-22,88-22,900-22h815l70,23c158,53,297,170,368,313c40,79,963,2625,1004,2769c30,106,41,272,23,362c-34,174-148,285-361,350
		l-74,23l-845,2C4627,5549,4486,5547,4440,5534z M5668,4782c39-28,72-89,72-132c0-38-732-2085-758-2120c-11-14-34-34-53-45
		c-32-19-55-20-454-23c-276-2-432,0-456,7c-70,21-118,78-121,144c-1,32,717,2064,749,2118c17,28,57,56,101,69c15,5,221,8,457,7
		l430-2L5668,4782z"/>
</g>
</svg>
