<?xml version="1.0" encoding="UTF-8"?><svg id="_200" xmlns="http://www.w3.org/2000/svg" viewBox="0 0 1129.45 1089.49"><defs><style>.cls-1{fill:none;stroke:#fff;stroke-linecap:round;stroke-linejoin:round;stroke-width:0px;}.cls-2{fill:#000;}</style></defs><path class="cls-2" d="M497.35,245.48c-9.01,2.95-13.93,12.65-10.98,21.66l7.95,24.28c-52.61-19.83-90.04-70.63-90.04-130.18,0-76.81,62.27-139.08,139.08-139.08s139.08,62.27,139.08,139.08c0,26.81-7.59,51.84-20.73,73.07l-7.27-22.19c-2.95-9.01-12.65-13.93-21.66-10.98l-17.56,5.75-7.34-22.42c-2.55-7.78-10.91-12.02-18.69-9.47l-73.28,23.99c-7.78,2.55-12.02,10.91-9.47,18.69l7.34,22.42-16.44,5.38Z"/><g><path class="cls-1" d="M682.37,156.7c.01,.41,.03,.81,.04,1.22"/><path class="cls-1" d="M682.21,153.11c.03,.51,.06,1.02,.08,1.53"/><path class="cls-1" d="M681.97,149.7c.05,.58,.09,1.16,.13,1.74"/><path class="cls-1" d="M681.67,176.12c-.14,1.32-.3,2.64-.48,3.95"/><path class="cls-2" d="M661.72,234.32h0c10.01-16.18,16.8-34.55,19.47-54.24-2.67,19.69-9.46,38.06-19.47,54.24Z"/><path class="cls-2" d="M680.41,137.39c.46,2.68,.85,5.39,1.15,8.12-.31-2.73-.69-5.44-1.15-8.12Z"/><path class="cls-2" d="M1004.52,426.08c-36.5-35.65-79.01-63.64-126.35-83.19-49.02-20.25-101.1-30.52-154.8-30.52s-105.78,10.27-154.8,30.52c-47.34,19.55-89.85,47.54-126.35,83.19-36.48,35.63-65.12,77.11-85.12,123.29-20.7,47.79-31.19,98.55-31.19,150.89s10.49,103.1,31.19,150.89c20,46.18,48.64,87.66,85.12,123.29,27.44,26.8,58.28,49.27,92.01,67.08h.97c-16.98-9.15-157.32-93.29-183.9-254.19-.42-2.51,2.88-3.82,4.32-1.72,12.37,18.05,44.58,53.81,104.04,50.34,.94-.05,1.82,.43,2.26,1.27,9.56,18.37,124.09,214.51,361.4,138.86,0,0,181.5-63.21,186.06-272.31,0,0,10-120.78-109.97-231.27-7.2-6.64,31.86-36.76,20.37-97.75-.36-1.89,1.73-3.72,3.3-2.62,131.26,91.26,165.66,183.02,165.66,183.02v-7.81c-19.96-45.37-48.27-86.16-84.22-121.27Zm-16.87,278.56c0,149.91-119.93,271.44-267.86,271.44s-267.86-121.53-267.86-271.44,119.93-271.44,267.86-271.44,267.86,121.53,267.86,271.44Z"/><path class="cls-2" d="M717.33,535.37c.03,.85,.56,1.61,1.36,1.92l16.57,6.55c1.12,4.45,2.6,8.75,4.43,12.87-.05,.07-.11,.13-.15,.2l-9.25,16.87c-.41,.75-.34,1.68,.19,2.36l10.83,13.88c.52,.67,1.4,.97,2.23,.76l18.4-4.69c3.43,2.85,7.11,5.42,10.98,7.67l2.11,19.03c.09,.85,.69,1.57,1.51,1.82l16.84,5.14c.82,.25,1.7,0,2.26-.66l12.49-14.55c1.34,.09,2.69,.15,4.05,.17,3.04,.04,6.03-.1,8.97-.38,.03,.03,.04,.07,.07,.1l12.97,14.21c.58,.63,1.48,.86,2.29,.58l16.63-5.76c.81-.28,1.37-1.01,1.44-1.86l1.54-19.2c3.28-2.07,6.4-4.36,9.34-6.87,.28,.27,.63,.48,1.05,.57l18.83,3.95c.84,.18,1.7-.16,2.2-.87l10.14-14.39c.49-.7,.52-1.62,.08-2.35l-9.98-16.51c-.08-.14-.18-.25-.28-.36,3.5-8.17,5.71-17.01,6.37-26.25,.06-.88-16.41-.36-19.53-.25-.29,.01-.52,.24-.55,.53-2.76,30.91-28.89,55.48-61.11,55.11-31.1-.35-57.14-24.69-59.61-55.69-1.45-18.14,5.18-34.9,16.76-46.92,.81-.84,1.06-2.06,.7-3.16l-5.19-15.83c-.46-1.4-2.19-1.9-3.33-.95-.09,.08-.18,.16-.27,.23-.05-.02-.1-.04-.15-.06l-18.72-4.44c-.84-.2-1.71,.12-2.22,.81l-10.51,14.12c-.51,.68-.57,1.61-.14,2.35l9.55,16.76s.02,.03,.03,.04c-2.22,5.07-3.92,10.4-5.06,15.92l-16.57,7.87c-.78,.37-1.26,1.16-1.23,2.02l.65,17.59Z"/><circle class="cls-2" cx="682.45" cy="712.93" r="34.87"/><path class="cls-2" d="M929.69,711.93c-18.63,0-33.73,15.1-33.73,33.73s15.1,33.73,33.73,33.73,33.73-15.1,33.73-33.73-15.1-33.73-33.73-33.73Z"/><path class="cls-2" d="M811.46,550.52c13.53,0,24.5-10.97,24.5-24.49s-10.97-24.49-24.5-24.49-24.49,10.97-24.49,24.49,10.97,24.49,24.49,24.49Z"/><path class="cls-2" d="M929.29,846.09c2.07-2.87,4.28-5.63,6.78-8.1,2.76-7.22,4.19-12.74,4.19-12.74-6.26,2.23-12.79,1.78-12.79,1.78-44.94,0-81.38-36.43-81.38-81.38s36.43-81.38,81.38-81.38c8.93,0,17.53,1.44,25.57,4.1,0,0,3.35-28.3,1.31-28.79-1.72-.41-3.45-.78-5.2-1.12l-9.06-21.04c-.41-.96-1.36-1.58-2.41-1.58h-21.47c-1.04,0-1.98,.62-2.4,1.57l-9.32,21.27c-8.24,1.75-16.22,4.44-23.79,8.03-.11-.09-.21-.18-.34-.25l-20.46-11.48c-.91-.51-2.04-.43-2.87,.2l-17.05,13.04c-.83,.63-1.2,1.69-.95,2.7l5.59,22.85c.03,.11,.08,.21,.12,.32-4.43,5.11-8.34,10.57-11.72,16.32l-21.96,1.59c-1.04,.08-1.94,.76-2.29,1.75l-7.05,20.28c-.34,.98-.07,2.07,.69,2.78l16.5,15.3c-.55,4.45-.82,8.97-.82,13.53,0,4.91,.33,9.77,.96,14.56l-16.77,15.68c-.76,.72-1.03,1.82-.68,2.8l7.26,20.2c.35,.98,1.25,1.66,2.29,1.73l22.61,1.54c4.21,6.95,9.22,13.46,14.99,19.44-.15,.25-.27,.52-.34,.83l-4.49,23.03c-.2,1.03,.23,2.08,1.09,2.67l17.72,12.11c.86,.59,1.98,.61,2.87,.06l19.95-12.46c.33-.2,.57-.47,.77-.77,5.29,2.14,10.74,3.87,16.33,5.16l10.1,11.14c5.64-5.63,11.22-11.33,16.5-17.28Z"/><path class="cls-1" d="M681.66,146.37c.07,.65,.13,1.31,.19,1.97"/><path class="cls-2" d="M637.89,200.29c-1.69,.03-3.4,.3-5.09,.85l-17.56,5.75,17.56-5.75c1.69-.55,3.4-.83,5.09-.85Z"/><path class="cls-1" d="M442.75,257.25c.89,.93,1.8,1.86,2.72,2.77"/><path class="cls-2" d="M494.33,291.42c-18.48-6.97-35.09-17.75-48.85-31.4,13.77,13.64,30.38,24.43,48.85,31.4h0Z"/><path class="cls-2" d="M515.93,198.99l73.28-23.99c1.46-.48,2.94-.72,4.39-.74-1.46,.02-2.94,.26-4.4,.74l-73.28,23.99c-7.36,2.41-11.54,10.03-9.81,17.44-1.73-7.4,2.45-15.03,9.81-17.44Z"/><path class="cls-2" d="M334.99,860.73c-4.13-9.53-7.88-19.18-11.24-28.93-59.75,49-125.34,85.8-170.78,108.4-30.64,15.24-55.96,26.05-71.81,32.43,29.5,41.68,78.1,68.9,133.05,68.9H487.08c-22.01-14.58-42.62-31.22-61.69-49.84-38.73-37.83-69.15-81.89-90.4-130.96Z"/><path class="cls-2" d="M491.72,283.47l-5.35-16.33c-2.95-9.01,1.96-18.71,10.98-21.66l16.44-5.38-16.44,5.38c-9.01,2.95-13.93,12.65-10.98,21.66l5.35,16.33Z"/><path class="cls-2" d="M1024.16,170.39c-47.48,88.24-98.5,138.54-120.15,157.54,43.55,20.18,82.96,47.34,117.35,80.92,26.42,25.81,48.97,54.52,67.38,85.74v-194.32c0-53.03-25.35-100.13-64.58-129.88Z"/><path class="cls-2" d="M672.81,268.19l4.3,13.14c1.28,3.67,2.14,6.65,2.68,9.11,14.4-1.44,28.93-2.17,43.58-2.17,54.29,0,107.03,9.92,156.9,29.49,6.94-5.46,68.82-55.94,124.54-159.99-23.4-13-50.32-20.41-78.98-20.41h-214.64c.96,7.28,1.47,14.69,1.47,22.23,0,41.41-15,79.31-39.86,108.58Z"/><path class="cls-2" d="M301.81,700.27c0-55.65,11.16-109.64,33.17-160.46,21.25-49.07,51.66-93.13,90.4-130.96,26.08-25.47,55.07-47.24,86.55-65.09-1.03-1.9-2-4.32-2.9-7.41l-4.5-13.74c-73.27-18.04-127.62-84.17-127.62-163,0-7.54,.5-14.96,1.47-22.23H214.21c-89.97,0-162.9,72.93-162.9,162.9V878.63c0,26.66,6.4,51.82,17.76,74.03,38.64-15.41,152.82-64.82,247.3-144.63-9.67-34.91-14.55-70.97-14.55-107.76Z"/><path class="cls-1" d="M404.33,157.91c0-.39,.03-.77,.04-1.16"/><path class="cls-1" d="M404.45,154.63c.02-.5,.05-.99,.08-1.49"/><path class="cls-1" d="M404.89,148.31c.06-.65,.12-1.29,.19-1.93"/><path class="cls-2" d="M405.18,145.47c.31-2.72,.69-5.41,1.15-8.08-.46,2.67-.84,5.36-1.15,8.08Z"/><path class="cls-1" d="M404.64,151.42c.04-.57,.08-1.14,.13-1.71"/><path class="cls-1" d="M600.96,176.12c.4,.22,.78,.45,1.16,.71"/><path class="cls-2" d="M607.89,184.48l1.81,5.53-1.81-5.53c-1.06-3.25-3.15-5.87-5.78-7.64,2.63,1.78,4.71,4.4,5.78,7.64Z"/><path class="cls-2" d="M808.3,738.49l-16.02-15.89c.23-2.94,.35-5.9,.35-8.87,0-5.14-.36-10.22-1.04-15.22l16.64-16.06c.75-.73,1-1.83,.63-2.81l-7.58-20.08c-.37-.97-1.28-1.64-2.32-1.69l-22.15-1.15c-4.34-7.17-9.53-13.88-15.52-20.02l4.1-22.31c.19-1.03-.25-2.07-1.12-2.65l-17.85-11.92c-.87-.58-1.99-.59-2.87-.03l-18.79,12.02c-7.54-3.14-15.43-5.44-23.56-6.84l-8.78-20.38c-.41-.96-1.36-1.58-2.41-1.58h-21.47c-1.04,0-1.98,.62-2.4,1.57l-9.44,21.55c-.03,.08-.04,.15-.07,.23-7.53,1.78-14.83,4.35-21.79,7.66l-20.06-11.79c-.9-.53-2.03-.47-2.88,.15l-17.31,12.69c-.84,.62-1.23,1.67-1.01,2.68l5.12,22.96c.05,.23,.13,.45,.24,.65-5.11,5.86-9.53,12.18-13.25,18.85-.02,0-.03,0-.05,0l-23.34,2.41c-1.04,.11-1.92,.82-2.23,1.82l-6.42,20.48c-.31,.99,0,2.08,.78,2.76l17.73,15.46c.07,.06,.15,.09,.22,.15-.32,3.45-.49,6.94-.49,10.45,0,5.11,.35,10.17,1.03,15.16l-16.54,14.46c-.79,.69-1.09,1.8-.77,2.83l6.46,21.19c.31,1.03,1.18,1.78,2.21,1.92l23.24,3.1c.41,.05,.78,0,1.13-.12,3.72,5.92,8.03,11.52,12.89,16.73-.09,.2-.16,.41-.2,.63l-4.09,23.01c-.18,1.03,.28,2.09,1.17,2.69l18.3,12.48c.89,.6,2.03,.65,2.92,.11l20.06-12.13c.05-.03,.08-.07,.13-.11,7.34,3.06,15.02,5.3,22.92,6.71l9.14,20.33c.43,.95,1.4,1.57,2.48,1.57h22.15c1.07,0,2.05-.61,2.48-1.55l9.75-21.32c.08-.18,.13-.36,.17-.54,7.58-1.87,14.91-4.54,21.9-7.97,.16,.16,.35,.3,.57,.42l20.57,11.1c.92,.5,2.07,.39,2.93-.27l17.58-13.47c.85-.65,1.25-1.73,1.02-2.74l-5.23-22.85c-.12-.51-.38-.93-.73-1.25,5.17-6.27,9.59-13.02,13.22-20.15l18.09-.7c1.05-.04,1.97-.7,2.34-1.68l7.73-20.03c.38-.97,.14-2.07-.6-2.8Zm-126.04,56.61c-44.94,0-81.38-36.43-81.38-81.38s36.43-81.38,81.38-81.38,81.38,36.43,81.38,81.38-36.43,81.38-81.38,81.38Z"/></g><path class="cls-2" d="M847.8,892.42c-106.07,78.61-252.6,49-324.64-60.38-35.76-54.55-48.8-124.14-32.55-187.55,17.39-67.02,64.07-126.13,125.88-157.49,1.61-.71,7.37-3.59,9.03-4.33,6.94-2.98,14.58-6.15,21.78-8.42,14.71-4.72,30.19-8.07,45.59-9.3l6.62-.54c4.25-.35,7.97,2.81,8.32,7.06,.33,4.08-2.57,7.67-6.56,8.26l-.46,.07-6.08,.88c-14.04,2.04-28.09,5.85-41.36,10.86-83.25,31.79-144.02,117.16-144.27,206.57,.32,73.76,36.92,143.08,99.26,183.03,23.65,15.22,50.51,25.44,78.26,29.93,1.48,.15,7.41,1.1,8.97,1.28,2.78,.28,7.76,.67,10.54,.95,3.1,.15,7.54,.26,10.58,.4,10.01-.03,20.28-.41,30.2-1.82,32.19-4.19,63.28-16.36,90.2-34.52,10.03-6.28,20.01,7.44,10.68,15.05h0Z"/></svg>